<svg xmlns="http://www.w3.org/2000/svg" version="1.1" xmlns:xlink="http://www.w3.org/1999/xlink" viewBox="0 0 700 700" style="overflow: hidden; display: block;" width="700" height="700"><defs></defs><g id="two-0" transform="matrix(1 0 0 1 0 0)" opacity="1"><path transform="matrix(1 0 0 1 350 350)" id="two-2" d="M 281.133055 82.548113 C 294.038711 111.642053 297.728302 153.621949 278.466145 178.959325 C 258.108488 205.737718 214.515817 212.208608 181.038048 208.929045 C 138.696395 204.781154 106.935448 163.826997 67.512473 147.831696 C 52.17905 141.610382 34.54548 127.719532 19.282277 134.111186 C -13.904836 148.008698 -4.495179 207.859241 -33.035577 229.767481 C -54.832644 246.499392 -91.834249 265.812158 -113.935754 249.484499 C -143.30108 227.790635 -116.47292 175.332147 -120.481767 139.043371 C -122.529987 120.502537 -115.879093 95.95447 -129.534669 83.246876 C -158.178971 56.591088 -211.716933 88.230698 -247.636526 72.712644 C -280.792069 58.38872 -332.791565 35.961317 -329.437678 0 C -325.570153 -41.468703 -234.026763 -25.324974 -221.230537 -64.959147 C -209.463528 -101.405492 -281.820057 -136.279309 -267.018106 -171.602117 C -254.910211 -200.495931 -209.742914 -203.019628 -178.563987 -206.073826 C -147.894996 -209.078073 -115.116537 -177.940253 -86.630549 -189.694442 C -60.465864 -200.490791 -65.454148 -256.388806 -37.369284 -259.909075 C -8.655651 -263.508156 0.660126 -207.823366 29.15445 -202.77366 C 55.725078 -198.064867 78.879021 -234.290444 105.717962 -231.490049 C 129.507778 -229.007801 155.071741 -213.383095 166.866877 -192.574643 C 180.519158 -168.4899 157.27473 -133.716394 169.159182 -108.712006 C 178.71875 -88.599078 216.345459 -86.601401 220.302341 -64.686604 C 224.63099 -40.712807 180.369631 -23.96811 184.729665 -0.000001 C 192.225481 41.206221 264.150438 44.263251 281.133055 82.548113 Z " fill="hsl(32, 100%, 51%)" stroke="undefined" stroke-width="1" stroke-opacity="1" fill-opacity="1" visibility="visible" stroke-linecap="butt" stroke-linejoin="miter" stroke-miterlimit="4"></path></g></svg>